# File created by Blade
# Date/Time:  Wed Jan 21 14:28:11 2015
# Frame Rate: 120.000 fps
#------------------------------------------------------
:FULLY-SPECIFIED
:DEGREES
465
root 18.951409 35.407067 -21.176934 -174.353048 -2.645216 -178.190427
Spine -17.426775 -3.088443 2.207750
Head 12.978594 0.133711 0.870628
LeftShoulder -11.307789 -27.608742 1.087051
LeftArm -11.454215 17.900289 -51.852044
LeftForeArm 18.236852 0.000000 -1.150181
LeftHand -4.093662 -0.000000 -14.666120
LeftHandThumb1 -26.253704 0.000000 33.147579
RightShoulder -11.814372 -9.555221 6.717511
RightArm 16.375674 -1.146099 48.112516
RightForeArm -33.972679 -0.000000 9.036451
RightHand 2.700937 -0.000000 15.613043
RightHandThumb1 -24.326973 -0.000000 -32.862282
LeftUpLeg 2.232880 8.712268 3.363225
LeftLeg -6.228873 -0.000000 0.000000
LeftFoot -20.452518 27.788362 -10.365926
LeftToeBase 28.317035 -0.000000 -0.000000
RightUpLeg 0.551870 -12.270744 0.213789
RightLeg -2.680733 -0.000000 0.000000
RightFoot -20.753629 -22.233794 15.260513
RightToeBase 25.755988 -0.000000 -0.000000
466
root 18.946901 35.408923 -21.167223 -174.314727 -2.673843 -178.198950
Spine -17.557768 -3.021346 2.213715
Head 13.057866 0.109601 0.806840
LeftShoulder -11.012051 -27.935710 1.263559
LeftArm -10.589275 18.681360 -50.795276
LeftForeArm 17.771662 -0.000000 -1.055541
LeftHand -3.971362 -0.000000 -14.205141
LeftHandThumb1 -26.253704 0.000000 33.147579
RightShoulder -11.631058 -9.372249 6.391609
RightArm 16.831291 -0.579033 47.115078
RightForeArm -34.068682 0.000000 8.812172
RightHand 2.676988 0.000000 15.238955
RightHandThumb1 -24.326973 -0.000000 -32.862282
LeftUpLeg 2.196297 8.710808 3.339147
LeftLeg -6.274942 -0.000000 0.000000
LeftFoot -20.396086 27.770784 -10.355899
LeftToeBase 28.352477 -0.000000 -0.000000
RightUpLeg 0.517683 -12.266543 0.211344
RightLeg -2.715404 -0.000000 0.000000
RightFoot -20.729126 -22.266848 15.275537
RightToeBase 25.847029 -0.000000 -0.000000
467
root 18.942268 35.410690 -21.157156 -174.274684 -2.712592 -178.210550
Spine -17.687401 -2.993666 2.227240
Head 13.121388 0.089314 0.715275
LeftShoulder -10.738688 -28.292115 1.463204
LeftArm -9.749203 19.064042 -49.633282
LeftForeArm 17.730851 -0.000000 -0.963221
LeftHand -3.877130 -0.000000 -13.571081
LeftHandThumb1 -26.253704 0.000000 33.147579
RightShoulder -11.407860 -9.215785 6.030150
RightArm 17.285592 0.285835 46.221868
RightForeArm -34.434007 -0.000000 8.527769
RightHand 2.577457 -0.000000 15.080950
RightHandThumb1 -24.326973 -0.000000 -32.862282
LeftUpLeg 2.145230 8.717982 3.313590
LeftLeg -6.301423 -0.000000 0.000000
LeftFoot -20.360489 27.728326 -10.368492
LeftToeBase 28.358913 -0.000000 -0.000000
RightUpLeg 0.473756 -12.281448 0.205105
RightLeg -2.731212 -0.000000 0.000000
RightFoot -20.708896 -22.288289 15.294298
RightToeBase 25.828452 -0.000000 -0.000000
468
root 18.938312 35.413349 -21.147927 -174.227113 -2.737175 -178.215696
Spine -17.823295 -2.965854 2.229671
Head 13.156465 0.042201 0.673094
LeftShoulder -10.508137 -28.547911 1.695951
LeftArm -8.808509 19.244133 -48.414811
LeftForeArm 17.738800 -0.000000 -0.903768
LeftHand -3.774241 -0.000000 -13.005146
LeftHandThumb1 -26.253704 0.000000 33.147579
RightShoulder -11.171073 -9.102040 5.766176
RightArm 17.623206 0.511624 44.975998
RightForeArm -34.246011 -0.000000 8.413797
RightHand 2.345135 -0.000000 14.665267
RightHandThumb1 -24.326973 -0.000000 -32.862282
LeftUpLeg 2.093517 8.710552 3.293713
LeftLeg -6.332780 -0.000000 0.000000
LeftFoot -20.293126 27.714240 -10.362592
LeftToeBase 28.263801 -0.000000 -0.000000
RightUpLeg 0.416088 -12.278520 0.206536
RightLeg -2.736796 -0.000000 0.000000
RightFoot -20.676346 -22.257101 15.401071
RightToeBase 25.608812 -0.000000 -0.000000
469
root 18.934306 35.415166 -21.138042 -174.202630 -2.806970 -178.236739
Spine -17.908635 -2.975104 2.212907
Head 13.150561 0.047616 0.672316
LeftShoulder -10.277864 -28.822189 1.926979
LeftArm -7.887708 19.309742 -47.153821
LeftForeArm 17.799932 -0.000000 -0.793843
LeftHand -3.778846 -0.000000 -12.476533
LeftHandThumb1 -26.253704 0.000000 33.147579
RightShoulder -10.896186 -8.964725 5.467035
RightArm 17.883282 1.117870 43.876354
RightForeArm -34.378065 -0.000000 8.247775
RightHand 2.428585 -0.000000 14.308061
RightHandThumb1 -24.326973 -0.000000 -32.862282
LeftUpLeg 2.032271 8.653813 3.266472
LeftLeg -6.315333 -0.000000 0.000000
LeftFoot -20.298740 27.683636 -10.395217
LeftToeBase 28.335631 -0.000000 -0.000000
RightUpLeg 0.393873 -12.309911 0.190668
RightLeg -2.754452 -0.000000 0.000000
RightFoot -20.664233 -22.293265 15.416385
RightToeBase 25.619086 -0.000000 -0.000000
470
root 18.931081 35.416277 -21.132774 -174.194900 -2.843336 -178.258695
Spine -17.973172 -2.964909 2.186619
Head 13.136474 0.057845 0.641402
LeftShoulder -10.037898 -29.124170 2.214602
LeftArm -7.119750 19.459152 -45.953592
LeftForeArm 17.855136 -0.000000 -0.589703
LeftHand -3.785631 0.000000 -11.931998
LeftHandThumb1 -26.253704 0.000000 33.147579
RightShoulder -10.660274 -8.734970 5.163598
RightArm 18.065321 1.632666 42.738218
RightForeArm -34.555290 0.000000 8.142010
RightHand 2.193323 -0.000000 14.226568
RightHandThumb1 -24.326973 -0.000000 -32.862282
LeftUpLeg 2.014690 8.627340 3.239447
LeftLeg -6.326577 -0.000000 0.000000
LeftFoot -20.276362 27.670887 -10.411957
LeftToeBase 28.359952 -0.000000 -0.000000
RightUpLeg 0.390371 -12.299761 0.170261
RightLeg -2.766147 -0.000000 0.000000
RightFoot -20.684054 -22.378914 15.359240
RightToeBase 25.793301 -0.000000 -0.000000
471
root 18.927335 35.417782 -21.127734 -174.198871 -2.886404 -178.275368
Spine -18.009621 -2.961731 2.173079
Head 13.081271 0.026905 0.600074
LeftShoulder -9.822867 -29.397107 2.482724
LeftArm -6.292417 19.595735 -44.705203
LeftForeArm 17.828963 -0.000000 -0.440318
LeftHand -3.724768 -0.000000 -11.291920
LeftHandThumb1 -26.253704 0.000000 33.147579
RightShoulder -10.382295 -8.520271 4.843141
RightArm 18.170757 2.134948 41.579485
RightForeArm -34.791010 -0.000000 8.014069
RightHand 2.108042 -0.000000 13.895684
RightHandThumb1 -24.326973 -0.000000 -32.862282
LeftUpLeg 1.996892 8.610742 3.219714
LeftLeg -6.311739 -0.000000 0.000000
LeftFoot -20.253997 27.633269 -10.411788
LeftToeBase 28.300386 -0.000000 -0.000000
RightUpLeg 0.399751 -12.297529 0.150514
RightLeg -2.780381 -0.000000 0.000000
RightFoot -20.679359 -22.425555 15.359955
RightToeBase 25.814917 -0.000000 -0.000000
472
root 18.923835 35.419526 -21.119776 -174.174295 -2.937205 -178.287539
Spine -18.067265 -2.953874 2.174887
Head 13.020876 -0.004122 0.519483
LeftShoulder -9.589496 -29.629993 2.731416
LeftArm -5.472601 19.775709 -43.460429
LeftForeArm 17.751625 0.000000 -0.282212
LeftHand -3.705977 -0.000000 -10.731274
LeftHandThumb1 -26.253704 0.000000 33.147579
RightShoulder -10.206378 -8.443352 4.536728
RightArm 18.441212 2.716549 40.435341
RightForeArm -35.022344 -0.000000 7.849657
RightHand 1.869418 0.000000 13.992276
RightHandThumb1 -24.326973 -0.000000 -32.862282
LeftUpLeg 1.939336 8.559358 3.200050
LeftLeg -6.289201 -0.000000 0.000000
LeftFoot -20.243636 27.630014 -10.417181
LeftToeBase 28.318625 -0.000000 -0.000000
RightUpLeg 0.363249 -12.301864 0.143626
RightLeg -2.772894 -0.000000 0.000000
RightFoot -20.669922 -22.428551 15.465430
RightToeBase 25.558604 -0.000000 -0.000000
473
root 18.920040 35.421025 -21.119006 -174.226992 -2.985386 -178.305167
Spine -18.028373 -2.934416 2.154552
Head 12.937012 -0.038216 0.442842
LeftShoulder -9.318672 -29.863390 2.970046
LeftArm -4.668697 19.921385 -42.204077
LeftForeArm 17.807869 0.000000 -0.196707
LeftHand -3.647193 -0.000000 -10.120490
LeftHandThumb1 -26.253704 0.000000 33.147579
RightShoulder -10.046883 -8.354202 4.238238
RightArm 18.656080 3.325991 39.283174
RightForeArm -34.981080 -0.000000 7.702992
RightHand 1.720767 -0.000000 13.982033
RightHandThumb1 -24.326973 -0.000000 -32.862282
LeftUpLeg 1.977390 8.524445 3.188180
LeftLeg -6.278936 -0.000000 0.000000
LeftFoot -20.235334 27.607670 -10.437491
LeftToeBase 28.327772 -0.000000 -0.000000
RightUpLeg 0.421542 -12.339741 0.112263
RightLeg -2.767598 -0.000000 0.000000
RightFoot -20.686150 -22.459728 15.414130
RightToeBase 25.764906 -0.000000 -0.000000
474
root 18.916725 35.422858 -21.119097 -174.262236 -3.057200 -178.311215
Spine -18.009665 -2.937211 2.164436
Head 12.810059 -0.091850 0.335077
LeftShoulder -9.065398 -30.120945 3.225931
LeftArm -3.908928 20.239742 -40.997267
LeftForeArm 17.781104 -0.000000 -0.157674
LeftHand -3.624059 -0.000000 -9.313378
LeftHandThumb1 -26.253704 0.000000 33.147579
RightShoulder -9.870002 -8.176388 3.888601
RightArm 18.723200 3.876651 38.148978
RightForeArm -35.076615 -0.000000 7.600168
RightHand 1.561736 -0.000000 13.928702
RightHandThumb1 -24.326973 -0.000000 -32.862282
LeftUpLeg 1.990072 8.458144 3.188937
LeftLeg -6.256859 -0.000000 0.000000
LeftFoot -20.233055 27.585275 -10.451677
LeftToeBase 28.340108 -0.000000 -0.000000
RightUpLeg 0.476105 -12.378058 0.096482
RightLeg -2.785555 -0.000000 0.000000
RightFoot -20.684511 -22.494113 15.458996
RightToeBase 25.678727 -0.000000 -0.000000
475
root 18.913909 35.424098 -21.120540 -174.304595 -3.124240 -178.314417
Spine -17.975796 -2.953091 2.175942
Head 12.668086 -0.102957 0.264363
LeftShoulder -8.816827 -30.306601 3.491088
LeftArm -3.156995 20.539200 -39.766265
LeftForeArm 17.701063 0.000000 -0.111236
LeftHand -3.531318 -0.000000 -8.772365
LeftHandThumb1 -26.253704 0.000000 33.147579
RightShoulder -9.754573 -8.104302 3.549340
RightArm 18.939872 4.925358 37.229676
RightForeArm -35.734180 -0.000000 7.427244
RightHand 1.412225 0.000000 13.833719
RightHandThumb1 -24.326973 -0.000000 -32.862282
LeftUpLeg 2.017181 8.411500 3.194630
LeftLeg -6.244219 -0.000000 0.000000
LeftFoot -20.222743 27.554046 -10.452356
LeftToeBase 28.294541 -0.000000 -0.000000
RightUpLeg 0.537440 -12.464274 0.085119
RightLeg -2.802817 -0.000000 0.000000
RightFoot -20.669679 -22.458309 15.477647
RightToeBase 25.747207 -0.000000 -0.000000
476
root 18.910396 35.425430 -21.117651 -174.317631 -3.147273 -178.324691
Spine -17.953758 -2.914310 2.159410
Head 12.540110 -0.138986 0.216566
LeftShoulder -8.560391 -30.414801 3.773898
LeftArm -2.384769 20.792515 -38.544099
LeftForeArm 17.595384 -0.000000 -0.040336
LeftHand -3.582038 0.000000 -8.274828
LeftHandThumb1 -26.253704 0.000000 33.147579
RightShoulder -9.605031 -7.937378 3.185271
RightArm 18.950382 5.668780 36.212260
RightForeArm -35.925878 -0.000000 7.347973
RightHand 1.162632 -0.000000 13.875554
RightHandThumb1 -24.326973 -0.000000 -32.862282
LeftUpLeg 2.007463 8.385362 3.181307
LeftLeg -6.215399 -0.000000 0.000000
LeftFoot -20.228811 27.550068 -10.467966
LeftToeBase 28.277886 -0.000000 -0.000000
RightUpLeg 0.544983 -12.466495 0.068505
RightLeg -2.793369 -0.000000 0.000000
RightFoot -20.672042 -22.483975 15.501341
RightToeBase 25.713203 -0.000000 -0.000000
477
root 18.908930 35.427221 -21.110158 -174.291258 -3.109723 -178.350453
Spine -17.961730 -2.832838 2.112960
Head 12.402214 -0.154707 0.177926
LeftShoulder -8.289529 -30.663880 4.066936
LeftArm -1.778956 21.224330 -37.330590
LeftForeArm 17.521825 -0.000000 0.041805
LeftHand -3.644180 -0.000000 -7.798154
LeftHandThumb1 -26.253704 0.000000 33.147579
RightShoulder -9.475536 -7.738721 2.867169
RightArm 18.910571 6.225700 35.080182
RightForeArm -35.988029 -0.000000 7.323937
RightHand 1.010856 -0.000000 13.841386
RightHandThumb1 -24.326973 -0.000000 -32.862282
LeftUpLeg 1.958652 8.423356 3.142987
LeftLeg -6.181669 -0.000000 0.000000
LeftFoot -20.227206 27.534457 -10.508080
LeftToeBase 28.289777 -0.000000 -0.000000
RightUpLeg 0.481202 -12.425339 0.048668
RightLeg -2.751326 -0.000000 0.000000
RightFoot -20.689736 -22.503240 15.487036
RightToeBase 25.695585 -0.000000 -0.000000
